<svg width="80" height="80" viewBox="0 0 80 80" fill="none" xmlns="http://www.w3.org/2000/svg">
<rect width="80" height="80" rx="20" fill="url(#paint0_linear_218_978)"/>
<path fill-rule="evenodd" clip-rule="evenodd" d="M39.7576 15C25.5265 15 14 26.4705 14 40.6323C14 51.9747 21.3731 61.5547 31.6117 64.951C32.8996 65.1753 33.3826 64.4063 33.3826 63.7335C33.3826 63.1247 33.3504 61.1062 33.3504 58.9595C26.8788 60.145 25.2045 57.3895 24.6894 55.9477C24.3996 55.2107 23.1439 52.9359 22.0492 52.3271C21.1477 51.8465 19.8598 50.661 22.017 50.629C24.0455 50.5969 25.4943 52.4873 25.9773 53.2563C28.2955 57.1332 31.9981 56.0438 33.4792 55.3709C33.7045 53.7048 34.3807 52.5834 35.1212 51.9426C29.3902 51.3018 23.4015 49.091 23.4015 39.2866C23.4015 36.4991 24.3996 34.1922 26.0417 32.398C25.7841 31.7571 24.8826 29.1298 26.2992 25.6054C26.2992 25.6054 28.4564 24.9325 33.3826 28.2327C35.4432 27.656 37.6326 27.3676 39.822 27.3676C42.0114 27.3676 44.2008 27.656 46.2614 28.2327C51.1875 24.9005 53.3447 25.6054 53.3447 25.6054C54.7614 29.1298 53.8598 31.7571 53.6023 32.398C55.2443 34.1922 56.2424 36.4671 56.2424 39.2866C56.2424 49.1231 50.2216 51.3018 44.4905 51.9426C45.4242 52.7436 46.2292 54.2816 46.2292 56.6846C46.2292 60.1129 46.197 62.8684 46.197 63.7335C46.197 64.4063 46.6799 65.2074 47.9678 64.951C58.142 61.5547 65.5151 51.9426 65.5151 40.6323C65.5151 26.4705 53.9886 15 39.7576 15Z" fill="white"/>
<defs>
<linearGradient id="paint0_linear_218_978" x1="68.5472" y1="8.24705" x2="5.50143" y2="82.2371" gradientUnits="userSpaceOnUse">
<stop stop-color="#00CEA8"/>
<stop offset="0.335" stop-color="#5A9BD1"/>
<stop offset="0.635" stop-color="#8184E3"/>
<stop offset="1" stop-color="#BF61FF"/>
</linearGradient>
</defs>
</svg>
