<svg width="512" height="512" viewBox="0 0 512 512" fill="none" xmlns="http://www.w3.org/2000/svg">
<path fill-rule="evenodd" clip-rule="evenodd" d="M62 0C27.7583 0 0 27.7588 0 62V450C0 484.241 27.7583 512 62 512H450C484.242 512 512 484.241 512 450V62C512 27.7588 484.242 0 450 0H62ZM81 260.463C81 161.316 159.359 81 256 81C352.641 81 431 161.316 431 260.463C431 339.686 380.922 406.877 311.234 430.55C302.328 432.347 299.203 426.722 299.203 421.955C299.203 416.096 299.438 396.72 299.438 372.734C299.438 356.015 293.812 345.076 287.562 339.529C326.547 335.076 367.484 319.919 367.484 251.009C367.484 231.477 360.688 215.46 349.516 202.882C351.312 198.35 357.328 180.067 347.797 155.379C347.797 155.379 333.188 150.535 299.75 173.739C285.766 169.755 270.766 167.802 255.922 167.724C241 167.802 226.078 169.755 212.094 173.739C178.656 150.535 163.969 155.379 163.969 155.379C154.438 180.067 160.453 198.35 162.25 202.882C151.078 215.382 144.281 231.398 144.281 251.009C144.281 319.763 185.141 335.154 223.969 339.686C218.969 344.139 214.438 352.108 212.875 363.671C202.875 368.281 177.562 376.172 161.938 348.748C161.938 348.748 152.719 331.482 135.141 330.231C135.141 330.231 118.109 329.997 133.969 341.17C133.969 341.17 145.453 346.717 153.422 367.421C153.422 367.421 163.734 402.345 212.406 391.485C212.445 398.923 212.503 405.438 212.552 410.641C212.601 415.932 212.641 419.866 212.641 422.033C212.641 426.8 209.438 432.347 200.688 430.706C131.156 406.955 81 339.764 81 260.463Z" fill="white"/>
</svg>
