<svg width="80" height="80" viewBox="0 0 80 80" fill="none" xmlns="http://www.w3.org/2000/svg">
<rect width="80" height="80" rx="20" fill="url(#paint0_linear_218_979)"/>
<path d="M31.5757 39.8466C31.5757 35.2726 35.2848 31.5637 39.8615 31.5637C44.4382 31.5637 48.1493 35.2726 48.1493 39.8466C48.1493 44.4206 44.4382 48.1295 39.8615 48.1295C35.2848 48.1295 31.5757 44.4206 31.5757 39.8466ZM27.0954 39.8466C27.0954 46.8931 32.8108 52.605 39.8615 52.605C46.9122 52.605 52.6276 46.8931 52.6276 39.8466C52.6276 32.8001 46.9122 27.0882 39.8615 27.0882C32.8108 27.0882 27.0954 32.8001 27.0954 39.8466ZM50.1496 26.5823C50.1494 27.172 50.3241 27.7485 50.6517 28.239C50.9794 28.7294 51.4451 29.1118 51.9902 29.3377C52.5352 29.5636 53.1351 29.6228 53.7138 29.508C54.2926 29.3932 54.8243 29.1095 55.2417 28.6926C55.6591 28.2758 55.9435 27.7447 56.0588 27.1663C56.1742 26.588 56.1153 25.9885 55.8897 25.4436C55.6641 24.8987 55.2819 24.4329 54.7915 24.105C54.301 23.7772 53.7242 23.6021 53.1342 23.6019H53.133C52.3421 23.6023 51.5836 23.9163 51.0242 24.4752C50.4649 25.034 50.1503 25.7918 50.1496 26.5823V26.5823ZM29.8175 60.0711C27.3936 59.9608 26.0761 59.5573 25.2006 59.2164C24.0398 58.7648 23.2117 58.2269 22.3409 57.3579C21.4702 56.4889 20.9312 55.662 20.4813 54.5019C20.14 53.6273 19.7362 52.3103 19.626 49.8878C19.5055 47.2688 19.4814 46.482 19.4814 39.8468C19.4814 33.2116 19.5075 32.427 19.626 29.8058C19.7364 27.3833 20.1432 26.0689 20.4813 25.1917C20.9331 24.0316 21.4714 23.204 22.3409 22.3337C23.2105 21.4635 24.0379 20.9248 25.2006 20.4752C26.0757 20.1341 27.3936 19.7306 29.8175 19.6205C32.4381 19.5 33.2253 19.476 39.8615 19.476C46.4977 19.476 47.2858 19.502 49.9085 19.6205C52.3324 19.7308 53.6477 20.1373 54.5254 20.4752C55.6862 20.9248 56.5144 21.4647 57.3851 22.3337C58.2558 23.2028 58.7929 24.0316 59.2447 25.1917C59.586 26.0663 59.9898 27.3833 60.1 29.8058C60.2205 32.427 60.2446 33.2116 60.2446 39.8468C60.2446 46.482 60.2205 47.2666 60.1 49.8878C59.9896 52.3103 59.5839 53.6269 59.2447 54.5019C58.7929 55.662 58.2547 56.4897 57.3851 57.3579C56.5155 58.2261 55.6862 58.7648 54.5254 59.2164C53.6503 59.5575 52.3324 59.961 49.9085 60.0711C47.2879 60.1916 46.5007 60.2157 39.8615 60.2157C33.2223 60.2157 32.4373 60.1916 29.8175 60.0711V60.0711ZM29.6116 15.1505C26.965 15.2709 25.1564 15.6903 23.577 16.3045C21.9413 16.9388 20.5566 17.7898 19.173 19.1705C17.7893 20.5511 16.94 21.9372 16.3053 23.5719C15.6908 25.1513 15.2711 26.9578 15.1506 29.6028C15.028 32.2521 15 33.0991 15 39.8466C15 46.5941 15.028 47.4411 15.1506 50.0904C15.2711 52.7356 15.6908 54.5419 16.3053 56.1213C16.94 57.755 17.7895 59.1427 19.173 60.5228C20.5564 61.9028 21.9413 62.7526 23.577 63.3887C25.1594 64.0029 26.965 64.4223 29.6116 64.5427C32.2638 64.6632 33.1099 64.6932 39.8615 64.6932C46.6131 64.6932 47.4606 64.6652 50.1114 64.5427C52.7583 64.4223 54.5656 64.0029 56.146 63.3887C57.7807 62.7526 59.1664 61.9034 60.5501 60.5228C61.9338 59.1421 62.7812 57.755 63.4177 56.1213C64.0323 54.5419 64.4539 52.7354 64.5725 50.0904C64.693 47.4391 64.721 46.5941 64.721 39.8466C64.721 33.0991 64.693 32.2521 64.5725 29.6028C64.4519 26.9576 64.0323 25.1503 63.4177 23.5719C62.7812 21.9382 61.9316 20.5533 60.5501 19.1705C59.1686 17.7876 57.7807 16.9388 56.148 16.3045C54.5656 15.6903 52.7581 15.2689 50.1134 15.1505C47.4626 15.03 46.6151 15 39.8635 15C33.1119 15 32.2638 15.028 29.6116 15.1505Z" fill="white"/>
<defs>
<linearGradient id="paint0_linear_218_979" x1="68.5472" y1="8.24705" x2="5.50143" y2="82.2371" gradientUnits="userSpaceOnUse">
<stop stop-color="#00CEA8"/>
<stop offset="0.335" stop-color="#5A9BD1"/>
<stop offset="0.635" stop-color="#8184E3"/>
<stop offset="1" stop-color="#BF61FF"/>
</linearGradient>
</defs>
</svg>
