<svg width="80" height="80" viewBox="0 0 80 80" fill="none" xmlns="http://www.w3.org/2000/svg">
<rect width="80" height="80" rx="20" fill="url(#paint0_linear_218_977)"/>
<path d="M19.6976 39.5033C19.6976 39.5033 39.1577 31.0035 45.9068 28.0105C48.4941 26.8134 57.268 22.9824 57.268 22.9824C57.268 22.9824 61.3175 21.3065 60.98 25.3768C60.8675 27.0529 59.9676 32.9189 59.0678 39.2639C57.7179 48.2426 56.2556 58.0593 56.2556 58.0593C56.2556 58.0593 56.0306 60.8128 54.1184 61.2917C52.2061 61.7705 49.0564 59.6157 48.4941 59.1367C48.044 58.7777 40.0576 53.3904 37.1329 50.7566C36.3455 50.0383 35.4457 48.6018 37.2453 46.9257C41.2949 42.9751 46.1318 38.0668 49.0564 34.9542C50.4063 33.5175 51.7561 30.1655 46.1318 34.2357C38.1453 40.1019 30.2713 45.6089 30.2713 45.6089C30.2713 45.6089 28.4714 46.8059 25.0969 45.7285C21.7222 44.6512 17.7852 43.2145 17.7852 43.2145C17.7852 43.2145 15.0857 41.4188 19.6976 39.5033Z" fill="white"/>
<defs>
<linearGradient id="paint0_linear_218_977" x1="68.5472" y1="8.24705" x2="5.50143" y2="82.2371" gradientUnits="userSpaceOnUse">
<stop stop-color="#00CEA8"/>
<stop offset="0.335" stop-color="#5A9BD1"/>
<stop offset="0.635" stop-color="#8184E3"/>
<stop offset="1" stop-color="#BF61FF"/>
</linearGradient>
</defs>
</svg>
