<svg width="512" height="512" viewBox="0 0 512 512" fill="none" xmlns="http://www.w3.org/2000/svg">
<path fill-rule="evenodd" clip-rule="evenodd" d="M62 0C27.7583 0 0 27.7578 0 62V450C0 484.242 27.7583 512 62 512H450C484.242 512 512 484.242 512 450V62C512 27.7578 484.242 0 450 0H62ZM362.801 393.494L415.014 147.4C419.648 125.709 407.213 117.219 393.001 122.545L86.0532 240.729C65.1213 248.91 65.4302 260.645 82.5 265.971L160.975 290.518L343.259 175.809C351.833 170.096 359.634 173.26 353.223 178.973L205.774 312.133L200.058 393.107C208.245 393.107 211.798 389.557 216.046 385.312L254.434 348.414L333.99 407.004C348.589 415.186 358.861 410.863 362.801 393.494Z" fill="white"/>
</svg>
