<svg width="338" height="302" viewBox="0 0 338 302" fill="none" xmlns="http://www.w3.org/2000/svg">
<path d="M48.0523 0.590012C31.4622 0.590012 25.7443 2.30818 19.4491 5.74451C13.3602 8.96867 8.37657 13.9425 5.14042 20.025C1.71817 26.3343 0 32.0381 0 49.1916V177.871C0 194.461 1.71817 200.193 5.14042 206.474C8.57675 212.77 13.1679 217.347 19.4491 220.783C25.1669 224.219 30.8988 225.923 48.0523 225.923H86.359L102.386 207.052H42.3345C37.7574 207.629 32.617 207.038 28.0258 204.742C25.1669 203.615 22.8713 200.756 21.1532 197.898C19.435 193.32 18.2943 188.743 18.8717 183.589V44.0512C18.3083 39.4741 18.8717 34.3337 21.1532 29.7566C22.2939 26.8977 25.1669 24.6162 28.0258 22.898C32.6029 21.1798 37.18 20.025 42.3345 20.5883H293.961C298.538 20.025 303.679 20.6165 308.27 22.898C311.129 24.0528 313.396 26.8977 315.115 29.7566C316.833 34.3196 317.974 38.9108 317.396 44.0512V184.18C317.959 188.743 317.396 193.898 315.115 198.475C313.974 201.334 311.129 203.615 308.27 205.319C303.693 207.038 299.116 208.178 293.961 207.615H233.91L249.923 226.501L289.398 225.937C306.552 225.937 312.256 224.219 318.551 220.783C324.644 217.551 329.628 212.567 332.86 206.474C336.282 200.756 338 195.025 338 177.885V49.1775C338 32.024 336.282 26.3203 332.86 20.025C329.626 13.9373 324.642 8.95833 318.551 5.73043C312.256 2.29409 306.552 0.575928 289.398 0.575928H48.0523V0.590012ZM167.071 172.379C166.064 172.42 165.079 172.677 164.18 173.131C163.281 173.585 162.49 174.227 161.86 175.012L61.7836 289.96C60.6329 291.208 60.0119 292.854 60.0513 294.551C60.0177 295.462 60.1725 296.37 60.5062 297.219C60.8398 298.067 61.3451 298.837 61.9903 299.481C62.6356 300.125 63.4068 300.629 64.2558 300.961C65.1048 301.293 66.0131 301.446 66.924 301.41H268.217C269.935 301.41 271.667 300.847 272.808 299.706C275.667 297.41 275.681 292.819 273.386 289.96L173.295 175.012L172.718 174.449C171.161 173.086 169.154 172.348 167.085 172.379H167.071Z" fill="white"/>
</svg>
