<svg xmlns="http://www.w3.org/2000/svg" version="1.1" xmlns:xlink="http://www.w3.org/1999/xlink" xmlns:svgjs="http://svgjs.dev/svgjs" width="2000" height="1745" viewBox="0 0 2000 1745"><g transform="matrix(1,0,0,1,-0.3295256483730782,0.7077823285616205)"><svg viewBox="0 0 283 247" data-background-color="#ffffff" preserveAspectRatio="xMidYMid meet" height="1745" width="2000" xmlns="http://www.w3.org/2000/svg" xmlns:xlink="http://www.w3.org/1999/xlink"><g id="tight-bounds" transform="matrix(1,0,0,1,0.04670545408856697,-0.09997365579206985)"><svg viewBox="0 0 282.90666666666664 247.2" height="247.2" width="282.90666666666664"><g><svg viewBox="0 0 282.90666666666664 247.2" height="247.2" width="282.90666666666664"><g><svg viewBox="0 0 282.90666666666664 247.2" height="247.2" width="282.90666666666664"><g id="textblocktransform"><svg viewBox="0 0 282.90666666666664 247.2" height="247.2" width="282.90666666666664" id="textblock"><g><svg viewBox="0 0 282.90666666666664 247.2" height="247.2" width="282.90666666666664"><path d="M282.244 53.02C280.914 27.36 277.124 20.227 277.124 20.227 265.486-6.202 250.963-0.506 237.915 3.292 214.88 3.446 191.937 9.091 168.955 12.119 120.715 12.581 72.064 4.986 24.064 23.717 19.555 29.464-4.678 24.846 0.802 56.304 2.238 69.39 7.479 83.913 7.319 95.922 8.037 98.026 9.035 93.202 9.46 96.23 10.95 104.39 13.384 100.541 15.379 105.365 12.599 118.246 14.594 128.971 16.496 140.21 13.144 143.135 8.849 141.749 6.92 151.449 6.721 158.479 5.643 157.145 4.459 156.837 3.595 156.632 1.853 157.402 2.145 159.608 3.143 167.152-1.14 171.514 1.547 178.904-0.302 186.91 2.824 193.838 2.398 202.511 2.345 204.255 2.637 205.744 3.103 206.154 5.164 208.361 2.159 212.672 2.478 217.342 23.625 249.262 46.567 227.195 68.233 241.872 73.859 231.608 69.63 245.516 71.877 243.36 73.633 240.846 74.91 251.263 76.892 245.362 77.197 243.668 76.732 239.665 77.823 240.435 78.394 240.846 78.9 240.743 78.98 238.382 79.099 234.841 78.049 237.048 77.769 235.201 80.788 225.861 80.044 248.081 82.877 247.158 82.744 244.438 81.919 240.538 83.608 241.051 85.284 237.151 85.337 233.918 86.827 242.693 86.88 244.592 87.146 245.926 87.572 246.85 92.227 237.305 96.855 250.237 101.736 245.926 104.729 241.205 107.601 248.492 110.634 246.696 111.698 245.259 112.775 242.693 113.799 247.004 126.341 247.928 139.708 244.079 151.598 247.158 183.372 241.41 217.327 249.518 250.83 241.923 258.73 238.998 266.936 234.841 274.637 231.506 274.637 231.506 280.874 222.371 280.874 181.316S282.204 145.393 282.404 112.703C282.603 80.013 283.534 78.679 282.204 53.02Z" opacity="1" fill="#ff5858" data-fill-palette-color="tertiary"></path><g transform="matrix(1,0,0,1,55.76831999999999,26.230666666666668)"><svg width="171.37002666666666" viewBox="0.9 -36.05 31.9 36.25" height="194.73866666666666" data-palette-color="#ffffff"><path d="M7.35 0.2L7.35 0.2Q4.75 0.2 3.15-1.93 1.55-4.05 1.55-7.7L1.55-7.7Q1.55-10.05 2.1-12.85 2.65-15.65 3.4-18.48 4.15-21.3 4.7-23.65 5.25-26 5.25-27.35L5.25-27.35Q5.25-29.1 4.2-29.1L4.2-29.1Q3.5-29.1 2.65-28.35 1.8-27.6 1.4-26.4L1.4-26.4 0.9-26.6Q1.05-29.55 2.35-31.65 3.65-33.75 5.55-34.88 7.45-36 9.3-36L9.3-36Q11.25-36 12.65-34.63 14.05-33.25 14.05-30.15L14.05-30.15Q14.05-28.05 13.48-25.45 12.9-22.85 12.13-20.18 11.35-17.5 10.78-15.1 10.2-12.7 10.2-11.05L10.2-11.05Q10.2-9.85 10.6-9.15 11-8.45 11.95-8.45L11.95-8.45Q13.3-8.45 14.75-9.83 16.2-11.2 17.55-13.28 18.9-15.35 20-17.35L20-17.35Q20.8-24.25 22.3-28.35 23.8-32.45 25.58-34.25 27.35-36.05 28.9-36.05L28.9-36.05Q30.55-36.05 31.68-34.43 32.8-32.8 32.8-30.2L32.8-30.2Q32.8-27.9 31.68-25.03 30.55-22.15 27.75-19.2L27.75-19.2Q27.4-17.45 27.18-15.55 26.95-13.65 26.95-11.95L26.95-11.95Q26.95-9.8 27.43-8.38 27.9-6.95 29.1-6.95L29.1-6.95Q29.9-6.95 30.63-7.68 31.35-8.4 31.85-9.85L31.85-9.85 32.25-9.65Q32.25-4.8 30.28-2.3 28.3 0.2 25.6 0.2L25.6 0.2Q23.15 0.2 21.5-2.23 19.85-4.65 19.55-10.45L19.55-10.45Q16.8-4.95 13.45-2.38 10.1 0.2 7.35 0.2Z" opacity="1" transform="matrix(1,0,0,1,0,0)" fill="#ffffff" class="wordmark-text-0" data-fill-palette-color="quaternary" id="text-0"></path></svg></g></svg></g></svg></g></svg></g><g></g></svg></g><defs></defs></svg><rect width="282.90666666666664" height="247.2" fill="none" stroke="none" visibility="hidden"></rect></g></svg></g></svg>